<svg xmlns="http://www.w3.org/2000/svg" xmlns:xlink="http://www.w3.org/1999/xlink" viewBox="0 0 201 279.73">
  <defs>
    <style>
      .cls-1 {
        fill: url(#linear-gradient);
      }

      .cls-2 {
        fill: #fff;
        stroke: #000;
        stroke-miterlimit: 10;
      }

      .cls-3 {
        fill: url(#linear-gradient-2);
      }

      .cls-4 {
        fill: #fcee21;
      }

      .cls-5 {
        fill: #ba9bc9;
      }

      .cls-6 {
        fill: #838bc5;
      }

      .cls-7 {
        fill: #fbb03b;
      }
    </style>
    <linearGradient id="linear-gradient" x1="150" y1="33.03" x2="150" y2="267.35" gradientUnits="userSpaceOnUse">
      <stop offset="0" stop-color="#454545"/>
      <stop offset="1" stop-color="#272727"/>
    </linearGradient>
    <linearGradient id="linear-gradient-2" x1="209.93" y1="48.76" x2="176.55" y2="79.48" gradientUnits="userSpaceOnUse">
      <stop offset="0" stop-color="gray"/>
      <stop offset="1" stop-color="#e6e6e6"/>
    </linearGradient>
  </defs>
  <g id="Layer_2" data-name="Layer 2">
    <path class="cls-1" d="M170.43,9.28H66.28A16.77,16.77,0,0,0,49.5,26.05V272.23A16.78,16.78,0,0,0,66.28,289H233.72a16.78,16.78,0,0,0,16.78-16.78v-185C243.37,78.86,175.78,17.45,170.43,9.28Z" transform="translate(-49.5 -9.28)"/>
    <path class="cls-2" d="M183.39,82.37" transform="translate(-49.5 -9.28)"/>
    <path class="cls-3" d="M190.7,87.26l59.23-.38L170.7,9.94l-.27,59.35C170.51,79.24,180.75,87.26,190.7,87.26Z" transform="translate(-49.5 -9.28)"/>
  </g>
  <g id="Layer_3" data-name="Layer 3">
    <g>
      <path class="cls-4" d="M99.43,225.46c-1.48,0-3.14-.06-5-.16a34.08,34.08,0,0,1-5.29-.71A12.25,12.25,0,0,1,85.05,223a3,3,0,0,1-1.58-2.61c0-.21.1-1,.32-2.45a18.83,18.83,0,0,1,1.1-4.18c.53-1.37,1.21-2.06,2-2.06a16.88,16.88,0,0,1,3.56.71,24.43,24.43,0,0,0,6.4.71q11.68,0,16.91-4.66T119,193.7V117.07c0-2.32,2.1-3.48,6.32-3.48h1.26q6.32,0,6.32,3.48v75.05a42.69,42.69,0,0,1-3.32,17.46,24.65,24.65,0,0,1-10.66,11.69Q111.59,225.46,99.43,225.46Z" transform="translate(-49.5 -9.28)"/>
      <path class="cls-4" d="M184.59,225.46a62.67,62.67,0,0,1-18-2.37q-7.91-2.37-11.7-5.22-3-2.2-3-4a7.9,7.9,0,0,1,1-3.31,17.85,17.85,0,0,1,2.37-3.64c.89-1.05,1.6-1.58,2.13-1.58a3.65,3.65,0,0,1,1.34.4,12.45,12.45,0,0,1,2,1.18,84.39,84.39,0,0,0,9.16,4.11,40.18,40.18,0,0,0,14.7,2.37,23.83,23.83,0,0,0,10.66-2.29,17.71,17.71,0,0,0,7.35-6.56,18,18,0,0,0,2.69-9.79q0-6.33-3.4-10.19a26.3,26.3,0,0,0-8.85-6.4q-5.44-2.53-11.61-4.9-5.06-1.9-10-4.19a39.88,39.88,0,0,1-8.84-5.61,23.87,23.87,0,0,1-6.32-8.45,30.74,30.74,0,0,1-2.37-12.88A27.05,27.05,0,0,1,158.28,127a28.92,28.92,0,0,1,12.25-10.34A42.92,42.92,0,0,1,189,113a51.15,51.15,0,0,1,7.51.63,55.88,55.88,0,0,1,8.21,1.9,24.51,24.51,0,0,1,6.56,3q3.17,1.91,3.16,4.11a8.41,8.41,0,0,1-.95,3.16,19.72,19.72,0,0,1-2.13,3.63c-.79,1.06-1.45,1.58-2,1.58a3.71,3.71,0,0,1-1.65-.55c-.69-.37-1.56-.81-2.61-1.34a62.85,62.85,0,0,0-6.48-2.69,29.66,29.66,0,0,0-10-1.42,25.93,25.93,0,0,0-10.51,2,16.42,16.42,0,0,0-7.27,6,17.38,17.38,0,0,0-2.61,9.79q0,5.7,3,9a22.6,22.6,0,0,0,7.9,5.45q4.89,2.13,10.58,4.35,5.22,2.06,10.51,4.5a45,45,0,0,1,9.72,6.08,26.36,26.36,0,0,1,7,9.09,31.29,31.29,0,0,1,2.6,13.51,31.89,31.89,0,0,1-2.45,12.79,25.8,25.8,0,0,1-7.1,9.64A33.14,33.14,0,0,1,199,223.33,45.59,45.59,0,0,1,184.59,225.46Z" transform="translate(-49.5 -9.28)"/>
    </g>
  </g>
  <g id="Layer_4" data-name="Layer 4">
    <rect class="cls-5" x="81.53" y="28.94" width="5.94" height="23.07" rx="2.84" transform="translate(3.87 -57.17) rotate(45)"/>
    <rect class="cls-5" x="81.15" y="41.65" width="5.94" height="23.07" rx="2.84" transform="translate(131.71 22.03) rotate(135)"/>
    <rect class="cls-6" x="125.38" y="41.67" width="5.94" height="23.07" rx="2.84" transform="translate(131.99 172.31) rotate(-135)"/>
    <rect class="cls-6" x="125.76" y="28.97" width="5.94" height="23.07" rx="2.84" transform="translate(-40.44 93.61) rotate(-45)"/>
    <rect class="cls-7" x="103.05" y="29.03" width="5.94" height="35.79" rx="2.84" transform="translate(-7.23 -59.19) rotate(32.77)"/>
  </g>
</svg>
